<?xml version="1.0" encoding="UTF-8"?>
<svg width="25px" height="39px" viewBox="0 0 25 39" version="1.1" xmlns="http://www.w3.org/2000/svg" xmlns:xlink="http://www.w3.org/1999/xlink">
    <title>Mic</title>
    <g id="Page-1" stroke="none" stroke-width="1" fill="none" fill-rule="evenodd">
        <g id="Desktop" transform="translate(-281.000000, -296.000000)" fill="#FFFFFF" fill-rule="nonzero">
            <g id="Mic" transform="translate(281.000000, 296.000000)">
                <path d="M23.2580645,14.0725806 C24.2177419,14.0725806 25,14.8548387 25,15.8145161 C25,22.0499194 20.4077573,27.2419903 14.4315185,28.1668324 L14.25,28.1935484 L14.25,33.3064516 L15.1612903,33.3064516 C15.5176031,33.3064516 15.8064516,33.5953002 15.8064516,33.9516129 L15.8064516,35.0645161 L18.733871,35.0645161 C19.6839516,35.0645161 20.4601435,35.8312073 20.4755724,36.7777151 L20.4758065,36.8064516 C20.4758065,37.7565323 19.7091153,38.5327242 18.7626075,38.5483871 L18.733871,38.5483871 L6.27419355,38.5483871 C5.31451613,38.5483871 4.53225806,37.766129 4.53225806,36.8064516 C4.53225806,35.856371 5.29894919,35.080179 6.24545706,35.0647502 L6.27419355,35.0645161 L9.27419355,35.0645161 L9.27419355,33.9516129 C9.27419355,33.5953002 9.5630421,33.3064516 9.91935484,33.3064516 L10.7580645,33.3064516 L10.7580645,28.1935484 C4.74620968,27.3552419 0.0938483871,22.225046 0.00140234677,16.0033822 L0,15.8145161 C0,14.8548387 0.782258065,14.0725806 1.74193548,14.0725806 C2.69201613,14.0725806 3.46820806,14.8392718 3.4836369,15.7857796 L3.48387097,15.8145161 C3.48387097,20.7822581 7.53225806,24.8306452 12.5,24.8306452 C17.4180645,24.8306452 21.4350694,20.870725 21.5149176,15.9635066 L21.516129,15.8145161 C21.516129,14.8548387 22.2983871,14.0725806 23.2580645,14.0725806 Z" id="Path"></path>
                <path d="M12.5,0 L12.5,0 C8.75806452,0 5.72580645,3.03225806 5.72580645,6.77419355 L5.72580645,15.7016129 C5.72580645,19.4435484 8.75806452,22.4758065 12.5,22.4758065 L12.5,22.4758065 C16.2419355,22.4758065 19.2741935,19.4435484 19.2741935,15.7016129 L19.2741935,6.77419355 C19.2741935,3.03225806 16.2419355,0 12.5,0 Z M5.72580645,9.59677419 L12.5,9.59677419 C12.8563127,9.59677419 13.1451613,9.88562274 13.1451613,10.2419355 L13.1451613,10.8064516 C13.1451613,11.1627644 12.8563127,11.4516129 12.5,11.4516129 L5.72580645,11.4516129 L5.72580645,11.4516129 L5.72580645,9.59677419 Z M5.72580645,12.8225806 L12.5,12.8225806 C12.8563127,12.8225806 13.1451613,13.1114292 13.1451613,13.4677419 L13.1451613,14.0322581 C13.1451613,14.3885708 12.8563127,14.6774194 12.5,14.6774194 L5.72580645,14.6774194 L5.72580645,14.6774194 L5.72580645,12.8225806 Z M5.72580645,6.37096774 L12.5,6.37096774 C12.8563127,6.37096774 13.1451613,6.65981629 13.1451613,7.01612903 L13.1451613,7.58064516 C13.1451613,7.9369579 12.8563127,8.22580645 12.5,8.22580645 L5.72580645,8.22580645 L5.72580645,8.22580645 L5.72580645,6.37096774 Z" id="XMLID_2050_"></path>
            </g>
        </g>
    </g>
</svg>